<mxfile host="app.diagrams.net" modified="2023-12-18T12:39:26.305Z" agent="Mozilla/5.0 (Windows NT 10.0; Win64; x64) AppleWebKit/537.36 (KHTML, like Gecko) Chrome/120.0.0.0 Safari/537.36" etag="dcQ-IIvwP8hAuGbumF-1" version="22.1.11" type="device">
  <diagram name="Page-1" id="xmRHT7kbsLrlWWKOVIml">
    <mxGraphModel dx="1615" dy="803" grid="1" gridSize="10" guides="1" tooltips="1" connect="1" arrows="1" fold="1" page="1" pageScale="1" pageWidth="850" pageHeight="1100" math="0" shadow="0">
      <root>
        <mxCell id="0" />
        <mxCell id="1" parent="0" />
        <mxCell id="nrO6RQOMF2JST5Qp19pD-3" value="" style="group" vertex="1" connectable="0" parent="1">
          <mxGeometry x="140" y="330" width="230" height="230" as="geometry" />
        </mxCell>
        <mxCell id="nrO6RQOMF2JST5Qp19pD-1" value="- BorderPane();&lt;br&gt;- initialize();&lt;br&gt;- case CLIENTS&lt;br&gt;- case DEPOSIT" style="whiteSpace=wrap;html=1;aspect=fixed;" vertex="1" parent="nrO6RQOMF2JST5Qp19pD-3">
          <mxGeometry width="230" height="230" as="geometry" />
        </mxCell>
        <mxCell id="nrO6RQOMF2JST5Qp19pD-2" value="AdminController" style="rounded=0;whiteSpace=wrap;html=1;" vertex="1" parent="nrO6RQOMF2JST5Qp19pD-3">
          <mxGeometry width="230" height="60" as="geometry" />
        </mxCell>
      </root>
    </mxGraphModel>
  </diagram>
</mxfile>
